<svg id="visual" viewBox="0 0 900 600" width="900" height="600" xmlns="http://www.w3.org/2000/svg" xmlns:xlink="http://www.w3.org/1999/xlink" version="1.1"><rect x="0" y="0" width="900" height="600" fill="#FFFFFF"></rect><path d="M0 122L30 129.5C60 137 120 152 180 160.8C240 169.7 300 172.3 360 166.5C420 160.7 480 146.3 540 145.3C600 144.3 660 156.7 720 154.7C780 152.7 840 136.3 870 128.2L900 120L900 0L870 0C840 0 780 0 720 0C660 0 600 0 540 0C480 0 420 0 360 0C300 0 240 0 180 0C120 0 60 0 30 0L0 0Z" fill="#c62368"></path><path d="M0 109L30 121.8C60 134.7 120 160.3 180 170.7C240 181 300 176 360 165.3C420 154.7 480 138.3 540 139.8C600 141.3 660 160.7 720 154.2C780 147.7 840 115.3 870 99.2L900 83L900 0L870 0C840 0 780 0 720 0C660 0 600 0 540 0C480 0 420 0 360 0C300 0 240 0 180 0C120 0 60 0 30 0L0 0Z" fill="#dd3c5d"></path><path d="M0 139L30 137.3C60 135.7 120 132.3 180 135.3C240 138.3 300 147.7 360 146.3C420 145 480 133 540 126.2C600 119.3 660 117.7 720 108.7C780 99.7 840 83.3 870 75.2L900 67L900 0L870 0C840 0 780 0 720 0C660 0 600 0 540 0C480 0 420 0 360 0C300 0 240 0 180 0C120 0 60 0 30 0L0 0Z" fill="#ed5852"></path><path d="M0 125L30 113.3C60 101.7 120 78.3 180 75.5C240 72.7 300 90.3 360 97C420 103.7 480 99.3 540 96.8C600 94.3 660 93.7 720 85.2C780 76.7 840 60.3 870 52.2L900 44L900 0L870 0C840 0 780 0 720 0C660 0 600 0 540 0C480 0 420 0 360 0C300 0 240 0 180 0C120 0 60 0 30 0L0 0Z" fill="#f87447"></path><path d="M0 53L30 52C60 51 120 49 180 53.8C240 58.7 300 70.3 360 71.3C420 72.3 480 62.7 540 54.7C600 46.7 660 40.3 720 45.7C780 51 840 68 870 76.5L900 85L900 0L870 0C840 0 780 0 720 0C660 0 600 0 540 0C480 0 420 0 360 0C300 0 240 0 180 0C120 0 60 0 30 0L0 0Z" fill="#fc923f"></path><path d="M0 4L30 9C60 14 120 24 180 33C240 42 300 50 360 47.3C420 44.7 480 31.3 540 31.3C600 31.3 660 44.7 720 50.3C780 56 840 54 870 53L900 52L900 0L870 0C840 0 780 0 720 0C660 0 600 0 540 0C480 0 420 0 360 0C300 0 240 0 180 0C120 0 60 0 30 0L0 0Z" fill="#fcaf3c"></path></svg>